<svg id="Layer_1" data-name="Layer 1" xmlns="http://www.w3.org/2000/svg" viewBox="0 0 250 90"><defs><style>.cls-1{fill:none;}.cls-2{fill:#fff;}.cls-3{fill:#33abcc;}</style></defs><title>Inventise-Logo</title><rect class="cls-1" width="250" height="90"/><path class="cls-2" d="M9.25,70.85A4.63,4.63,0,0,1,4.7,74.42a4.62,4.62,0,0,1-.06-9.24,4.59,4.59,0,0,1,4.6,3.64H6.61A1.94,1.94,0,0,0,4.73,67.6a2,2,0,0,0-2.06,2.2A2,2,0,0,0,4.73,72a2,2,0,0,0,1.88-1.16H9.25Z"/><path class="cls-2" d="M10.66,65.47h2.44V66.4h0a2.14,2.14,0,0,1,2.17-1.22v2.61c-1.2,0-2,.28-2,1.59v4.76H10.66V65.47Z"/><path class="cls-2" d="M24.65,71.42a5.08,5.08,0,0,1-1.77,2.22,4.22,4.22,0,0,1-2.47.78,4.62,4.62,0,1,1,4.53-4.51,3.56,3.56,0,0,1-.06.69h-6.5a2,2,0,0,0,2,1.64A1.85,1.85,0,0,0,22,71.42h2.66Zm-2.3-2.58a1.91,1.91,0,0,0-2-1.48,1.91,1.91,0,0,0-2,1.48h3.94Z"/><path class="cls-2" d="M35.5,74.14H32.9V73.21h0a2.8,2.8,0,0,1-2.53,1.23,4.64,4.64,0,0,1,0-9.26,2.82,2.82,0,0,1,2.53,1.22h0V65.47H35.5v8.67ZM30.73,72a2.21,2.21,0,1,0-2.16-2.19A2.14,2.14,0,0,0,30.73,72Z"/><path class="cls-2" d="M40.58,65.47h1.25v2H40.58v6.7H38v-6.7H36.7v-2H38V62.59h2.59v2.89Z"/><path class="cls-2" d="M45.55,64.55H43v-2h2.59v2Zm0,9.59H43V65.47h2.59v8.67Z"/><path class="cls-2" d="M52.35,74.14H49.86l-3.11-8.67h2.69l1.66,5.4h0l1.66-5.4h2.69Z"/><path class="cls-2" d="M64.73,71.42A5.09,5.09,0,0,1,63,73.64a4.22,4.22,0,0,1-2.47.78A4.62,4.62,0,1,1,65,69.91a3.56,3.56,0,0,1-.06.69h-6.5a2,2,0,0,0,2,1.64,1.85,1.85,0,0,0,1.58-.81h2.66Zm-2.3-2.58a2,2,0,0,0-3.94,0h3.94Z"/><path class="cls-2" d="M74.41,65.47h1.25v2H74.41v6.7H71.81v-6.7H70.53v-2h1.28V62.59h2.59v2.89Z"/><path class="cls-2" d="M85.15,71.42a5.08,5.08,0,0,1-1.77,2.22,4.22,4.22,0,0,1-2.47.78,4.62,4.62,0,1,1,4.53-4.51,3.56,3.56,0,0,1-.06.69h-6.5a2,2,0,0,0,2,1.64,1.85,1.85,0,0,0,1.58-.81h2.66Zm-2.3-2.58a2,2,0,0,0-3.94,0h3.94Z"/><path class="cls-2" d="M95.65,70.85a4.66,4.66,0,0,1-9.19-1.06,4.64,4.64,0,0,1,9.18-1H93a1.94,1.94,0,0,0-1.88-1.22,2,2,0,0,0-2.06,2.2A2,2,0,0,0,91.13,72,2,2,0,0,0,93,70.85h2.64Z"/><path class="cls-2" d="M97.07,62.59h2.59v3.69h0a2.43,2.43,0,0,1,2.24-1.09,3.16,3.16,0,0,1,2.36,1c0.73,0.86.81,1.62,0.81,3.17v4.84h-2.59V69.43c0-.42,0-1.81-1.39-1.81a1.45,1.45,0,0,0-1.45,1.72v4.81H97.07V62.59Z"/><path class="cls-2" d="M107,65.47h2.42V66.4h0a2.48,2.48,0,0,1,2.36-1.22,3.74,3.74,0,0,1,2.22.75,3.29,3.29,0,0,1,1,2.79v5.42h-2.6V69.41c0-.61,0-1.8-1.36-1.8a1.49,1.49,0,0,0-1.49,1.81v4.72H107V65.47Z"/><path class="cls-2" d="M121.1,65.19a4.61,4.61,0,1,1-4.67,4.61A4.53,4.53,0,0,1,121.1,65.19Zm0,6.79A2.19,2.19,0,1,0,119,69.8,2.11,2.11,0,0,0,121.1,72Z"/><path class="cls-2" d="M127.25,62.59h2.59V74.14h-2.59V62.59Z"/><path class="cls-2" d="M136,65.19a4.61,4.61,0,1,1-4.67,4.61A4.53,4.53,0,0,1,136,65.19ZM136,72a2.19,2.19,0,1,0-2.08-2.19A2.11,2.11,0,0,0,136,72Z"/><path class="cls-2" d="M151.12,73.1A5.47,5.47,0,0,1,150.6,76a5.08,5.08,0,0,1-4.39,2c-3,0-4.16-1.81-4.33-3h3a1.6,1.6,0,0,0,1.52.86c0.33,0,2.11,0,2.11-2.36V73.19h0a2.61,2.61,0,0,1-2.38,1.23,4.35,4.35,0,0,1-4.38-4.56,4.39,4.39,0,0,1,4.38-4.67,2.75,2.75,0,0,1,2.39,1.09h0V65.47h2.59V73.1ZM146.39,72a2.06,2.06,0,0,0,2.13-2.15,2.09,2.09,0,0,0-2.11-2.23A2.2,2.2,0,0,0,146.39,72Z"/><path class="cls-2" d="M161,65.47L156.63,77h-2.75l1.37-3.33L152,65.47h2.77l1.73,5h0l1.66-5H161Z"/><path class="cls-2" d="M4.85,24.87A6,6,0,0,1,0,22.39V54.3H9.67V22.44A6,6,0,0,1,4.85,24.87Z"/><ellipse class="cls-3" cx="4.85" cy="16.95" rx="3.95" ry="3.95"/><path class="cls-2" d="M14.33,22h9v3.43h0.12c1-1.57,3-4.54,8.79-4.54a13.93,13.93,0,0,1,8.27,2.79c1.75,1.51,3.73,4.07,3.73,10.42V54.3H34.6V36.67c0-2.27,0-6.69-5.07-6.69C24,30,24,34.75,24,36.73V54.3H14.33V22Z"/><path class="cls-2" d="M65.38,54.3H56.12L44.52,22h10l6.17,20.13h0.12L67,22H77Z"/><path class="cls-2" d="M108.56,44.18A19,19,0,0,1,102,52.44a15.72,15.72,0,0,1-9.2,2.91A17.14,17.14,0,0,1,75.65,38.24c0-9,7.11-17.34,16.95-17.34s17.07,7.8,17.07,17.63a13.16,13.16,0,0,1-.23,2.56H85.21c0.58,3.84,3.79,6.11,7.57,6.11a6.88,6.88,0,0,0,5.88-3h9.9ZM100,34.57a7.63,7.63,0,0,0-14.68,0H100Z"/><path class="cls-2" d="M113,22h9v3.43h0.12c1-1.57,3-4.54,8.79-4.54a13.93,13.93,0,0,1,8.27,2.79c1.75,1.51,3.73,4.07,3.73,10.42V54.3h-9.67V36.67c0-2.27,0-6.69-5.07-6.69-5.53,0-5.53,4.77-5.53,6.75V54.3H113V22Z"/><path class="cls-2" d="M159.93,22h5.55v7.33h-5.55v25h-9.67v-25h-4.77V22h4.77V13h9.67v9Z"/><polygon class="cls-3" points="175.14 21.81 170.34 21.81 169.85 21.81 169.85 54.34 170.34 54.34 175.14 54.34 175.63 54.34 175.63 21.81 175.14 21.81"/><path class="cls-3" d="M202.69,35.6h-10c-6.74,0-7.41-1.33-7.41-4.57,0-4.57,2.16-5.18,10.72-5.18h1.95c11.28,0,11.29.95,11.37,5.49v0.42h4.86V30.24c0-6.37-3.7-8.74-13.67-8.74h-6.61c-8.55,0-13.5,1.51-13.5,9.22,0,8.78,3.73,9.57,16.86,9.57h6.38c5.18,0,6.45.89,6.45,4.53,0,4.24-1.63,5.4-7.58,5.4H191.82c-5.44,0-6.54-1.58-6.54-4.14V43.43h-4.87v2.74c0,7.39,6.14,8.39,12.15,8.39h9.26c6.63,0,13.1-.68,13.1-8.74v-2C214.92,38.12,211.15,35.6,202.69,35.6Z"/><polygon class="cls-3" points="224.52 49.97 224.52 39.68 248.76 39.68 248.76 35.28 224.52 35.28 224.52 25.97 249.82 25.97 249.82 21.56 219.32 21.56 219.32 54.37 250 54.37 250 49.97 224.52 49.97"/></svg>